<svg id="_0331_shopping_cart" xmlns="http://www.w3.org/2000/svg" xmlns:xlink="http://www.w3.org/1999/xlink" viewBox="0 0 500 500" data-imageid="shopping-cart-21" imageName="Shopping Cart" class="illustrations_image" style="width: 188px;"><defs><style>.cls-1_shopping-cart-21{fill:url(#linear-gradient);}.cls-1_shopping-cart-21,.cls-2_shopping-cart-21,.cls-3_shopping-cart-21,.cls-4_shopping-cart-21,.cls-5_shopping-cart-21,.cls-6_shopping-cart-21,.cls-7_shopping-cart-21,.cls-8_shopping-cart-21,.cls-9_shopping-cart-21,.cls-10_shopping-cart-21,.cls-11_shopping-cart-21,.cls-12_shopping-cart-21{stroke-width:0px;}.cls-2_shopping-cart-21{isolation:isolate;opacity:.18;}.cls-2_shopping-cart-21,.cls-12_shopping-cart-21{fill:#68e1fd;}.cls-3_shopping-cart-21{fill:url(#linear-gradient-4-shopping-cart-21);}.cls-4_shopping-cart-21{fill:url(#linear-gradient-2-shopping-cart-21);}.cls-5_shopping-cart-21{fill:url(#linear-gradient-3-shopping-cart-21);}.cls-6_shopping-cart-21{fill:url(#linear-gradient-8-shopping-cart-21);}.cls-7_shopping-cart-21{fill:url(#linear-gradient-7-shopping-cart-21);}.cls-8_shopping-cart-21{fill:url(#linear-gradient-5-shopping-cart-21);}.cls-9_shopping-cart-21{fill:url(#linear-gradient-6-shopping-cart-21);}.cls-10_shopping-cart-21{fill:#2e2e3f;}.cls-11_shopping-cart-21{fill:#ffaa71;}</style><linearGradient id="linear-gradient-shopping-cart-21" x1="309.2" y1="2719.69" x2="305.72" y2="2597.67" gradientTransform="translate(-51.99 3093.14) scale(1 -1)" gradientUnits="userSpaceOnUse"><stop offset="0" stop-color="#231f20" stop-opacity="0"/><stop offset="1" stop-color="#231f20"/></linearGradient><linearGradient id="linear-gradient-2-shopping-cart-21" x1="279.86" y1="204.6" x2="526.16" y2="-9.77" gradientTransform="matrix(1,0,0,1,0,0)" xlink:href="#linear-gradient-shopping-cart-21"/><linearGradient id="linear-gradient-3-shopping-cart-21" x1="394.54" y1="2828.96" x2="364.33" y2="2762.49" xlink:href="#linear-gradient-shopping-cart-21"/><linearGradient id="linear-gradient-4-shopping-cart-21" x1="398.41" y1="2797.95" x2="413.39" y2="2797.95" xlink:href="#linear-gradient-shopping-cart-21"/><linearGradient id="linear-gradient-5-shopping-cart-21" x1="362.36" y1="2790.29" x2="392.38" y2="2763.59" xlink:href="#linear-gradient-shopping-cart-21"/><linearGradient id="linear-gradient-6-shopping-cart-21" x1="301.66" y1="218.98" x2="593.65" y2="230.8" gradientTransform="matrix(1,0,0,1,0,0)" xlink:href="#linear-gradient-shopping-cart-21"/><linearGradient id="linear-gradient-7-shopping-cart-21" x1="420.84" y1="2675.52" x2="437.62" y2="2675.52" xlink:href="#linear-gradient-shopping-cart-21"/><linearGradient id="linear-gradient-8-shopping-cart-21" x1="318.54" y1="197.31" x2="437.13" y2="321.76" gradientTransform="matrix(1,0,0,1,0,0)" xlink:href="#linear-gradient-shopping-cart-21"/></defs><g id="background_shopping-cart-21"><path class="cls-2_shopping-cart-21 targetColor" d="M476.09,246.1c-7.73,35.5-15.46,70.97-23.19,106.42-3.02,13.86-6.07,27.8-11.5,40.87-3.94,9.47-9.14,18.38-15.44,26.48-19.08,24.62-47.78,41.88-78.7,46.09-19.71,2.69-39.86.42-59.54,3.36-24.84,3.72-47.78,15.5-72.31,20.87-35.02,7.67-72.1,1.77-105.26-11.9-26.12-10.76-70.81-30.1-88.23-58.39-3.45-5.42-5.77-11.48-6.82-17.82-8.67-55.85,2.07-124.38,20.56-177.23C71.57,122.06,165.17,41.64,272.18,21.5c40.58-7.63,83.5-6.93,122.04,7.89,38.54,14.82,72.13,44.87,85.89,83.8,15,42.36,5.56,89-4.01,132.91Z" style="fill: rgb(104, 253, 155);"/><path class="cls-12_shopping-cart-21 targetColor" d="M425.95,419.89c-19.08,24.62-47.78,41.88-78.7,46.09-19.71,2.69-39.86.42-59.54,3.36-24.84,3.72-47.78,15.5-72.31,20.87-35.02,7.67-72.1,1.77-105.26-11.9-26.12-10.79-70.81-30.13-88.23-58.41h404.03Z" style="fill: rgb(104, 253, 155);"/><path class="cls-1_shopping-cart-21" d="M247.36,427.06c-39.87-9.24-81.46-5.45-122.2-1.62-3.72.35-7.57.74-10.74,2.7s-5.39,6.01-4.04,9.49c1.24,3.06,4.53,4.62,7.65,5.66,19.81,6.7,41.31,5.1,62.2,4.15,67.69-3.07,136.22,1.49,202.58-12.49,6.76-1.42,13.99-3.34,18.34-8.67-12.45-6.33-27.45-4.59-40.87-.76-13.41,3.84-26.39,9.67-40.26,11.21-7.79.85-10.4-7.32-16.85-10.28-4.95-2.28-8.19-1.71-13.26-.17-15.74,4.73-26.28,4.57-42.56.79Z"/></g><g id="shopping_cart_shopping-cart-21"><path class="cls-10_shopping-cart-21" d="M198.62,420.03c-5.81-.03-10.49-4.77-10.45-10.58.01-2.06.63-4.08,1.78-5.8h0c3.24-4.82,9.77-6.11,14.59-2.87,4.82,3.24,6.11,9.77,2.87,14.59-1.96,2.93-5.27,4.68-8.79,4.66ZM195.04,407.11c-1.33,1.98-.8,4.67,1.18,6s4.67.8,6-1.18c1.33-1.98.8-4.66-1.17-5.99-1.98-1.33-4.67-.8-6.01,1.18Z"/><path class="cls-10_shopping-cart-21" d="M121.58,420.03c-5.8-.02-10.48-4.74-10.46-10.54,0-2.08.63-4.11,1.79-5.83h0c3.24-4.82,9.77-6.11,14.59-2.87,4.82,3.24,6.11,9.77,2.87,14.59-1.96,2.93-5.27,4.68-8.79,4.66ZM118.02,407.11c-1.33,1.98-.81,4.67,1.17,6s4.67.81,6-1.17.81-4.67-1.17-6h0c-1.98-1.33-4.66-.81-5.99,1.17Z"/><path class="cls-12_shopping-cart-21 targetColor" d="M202.12,373.75h-104.37l-40.51-110.34h176.29l-31.42,110.34ZM102.08,367.56h95.35l27.9-97.98H66.12l35.96,97.98Z" style="fill: rgb(104, 253, 155);"/><path class="cls-12_shopping-cart-21 targetColor" d="M243.31,373.75h-104.38l-40.49-110.34h179.31l-34.44,110.34ZM143.28,367.56h95.35l27.9-97.98H107.37l35.91,97.98Z" style="fill: rgb(104, 253, 155);"/><path class="cls-12_shopping-cart-21 targetColor" d="M243.93,373.81h-49.43l22.14-78.08,18.28-56.7,49.86.67-40.84,134.11ZM202.68,367.62h36.67l37.15-121.84-37.05-.5-16.92,52.25-19.85,70.09Z" style="fill: rgb(104, 253, 155);"/><polygon class="cls-12_shopping-cart-21 targetColor" points="243.83 404.64 122.82 404.64 122.82 398.45 237.64 398.45 237.64 370.68 243.83 370.68 243.83 404.64" style="fill: rgb(104, 253, 155);"/><polygon class="cls-12_shopping-cart-21 targetColor" points="203.33 404.64 104.8 404.64 104.8 398.45 197.13 398.45 197.13 370.68 203.33 370.68 203.33 404.64" style="fill: rgb(104, 253, 155);"/><path class="cls-10_shopping-cart-21" d="M223.87,420.03c-5.81,0-10.51-4.71-10.51-10.51s4.71-10.51,10.51-10.51,10.51,4.71,10.51,10.51h0c0,5.81-4.71,10.51-10.51,10.51ZM223.87,405.17c-2.39,0-4.32,1.93-4.32,4.32s1.93,4.32,4.32,4.32,4.32-1.93,4.32-4.32h0c-.01-2.38-1.94-4.3-4.32-4.3v-.02Z"/><path class="cls-10_shopping-cart-21" d="M148.76,420.03c-5.8-.02-10.48-4.74-10.46-10.54,0-2.08.63-4.11,1.79-5.83h0c3.24-4.82,9.77-6.11,14.59-2.87,4.82,3.24,6.11,9.77,2.87,14.59-1.96,2.93-5.27,4.68-8.79,4.66ZM145.18,407.11c-1.33,1.98-.81,4.67,1.17,6s4.67.81,6-1.17c1.33-1.98.81-4.67-1.17-6,0,0,0,0,0,0-1.98-1.32-4.66-.8-5.99,1.18Z"/><rect class="cls-12_shopping-cart-21 targetColor" x="71.11" y="285.53" width="195.72" height="4.67" style="fill: rgb(104, 253, 155);"/><rect class="cls-12_shopping-cart-21 targetColor" x="75.29" y="301.22" width="186.42" height="4.67" style="fill: rgb(104, 253, 155);"/><rect class="cls-12_shopping-cart-21 targetColor" x="81.34" y="316.91" width="175.26" height="4.67" style="fill: rgb(104, 253, 155);"/><rect class="cls-12_shopping-cart-21 targetColor" x="87.38" y="332.6" width="164.11" height="4.67" style="fill: rgb(104, 253, 155);"/><rect class="cls-12_shopping-cart-21 targetColor" x="93.42" y="348.29" width="152.95" height="4.67" style="fill: rgb(104, 253, 155);"/><rect class="cls-12_shopping-cart-21 targetColor" x="97.81" y="262.7" width="4.67" height="109.87" transform="translate(-102.78 53.55) rotate(-20.04)" style="fill: rgb(104, 253, 155);"/><rect class="cls-12_shopping-cart-21 targetColor" x="148.38" y="263.85" width="4.67" height="106.14" transform="translate(-83.39 55.49) rotate(-16.41)" style="fill: rgb(104, 253, 155);"/><rect class="cls-12_shopping-cart-21 targetColor" x="180.81" y="264.6" width="4.67" height="103.96" transform="translate(-10.5 6.31) rotate(-1.92)" style="fill: rgb(104, 253, 155);"/><rect class="cls-12_shopping-cart-21 targetColor" x="170.67" y="316.67" width="106.53" height="4.67" transform="translate(-146.85 439.11) rotate(-72.88)" style="fill: rgb(104, 253, 155);"/></g><g id="character_shopping-cart-21"><path class="cls-12_shopping-cart-21 targetColor" d="M284.56,201.75c-.37,1.22-.92,2.39-1.62,3.45-1.39,1.65-3.14,2.95-5.13,3.8-7.85,4.02-19.81,8.36-26.48,14.18-.81.64-1.48,1.44-1.97,2.35-.95,2.07,0,4.46.88,6.54.4,1.18,1.1,2.23,2.03,3.05,1.7,1.24,4.05.71,6.07.11,7.74-2.31,15.36-5.02,22.81-8.14,4.17-1.68,8.22-3.65,12.12-5.88,1.56-.8,2.92-1.96,3.98-3.37.74-1.27,1.23-2.67,1.45-4.12,1.41-7.51,2.36-15.09,2.84-22.71l1.49-17.88c.3-3.44,10.77-15.49,7.62-17.86-6.19-4.63-15.19,7.97-16.61,10.56-3.99,7.29-7.93,31.5-9.47,35.91Z" style="fill: rgb(104, 253, 155);"/><path class="cls-4_shopping-cart-21" d="M284.56,201.75c-.37,1.22-.92,2.39-1.62,3.45-1.39,1.65-3.14,2.95-5.13,3.8-7.85,4.02-19.81,8.36-26.48,14.18-.81.64-1.48,1.44-1.97,2.35-.95,2.07,0,4.46.88,6.54.4,1.18,1.1,2.23,2.03,3.05,1.7,1.24,4.05.71,6.07.11,7.74-2.31,15.36-5.02,22.81-8.14,4.17-1.68,8.22-3.65,12.12-5.88,1.56-.8,2.92-1.96,3.98-3.37.74-1.27,1.23-2.67,1.45-4.12,1.41-7.51,2.36-15.09,2.84-22.71l1.49-17.88c.3-3.44,10.77-15.49,7.62-17.86-6.19-4.63-15.19,7.97-16.61,10.56-3.99,7.29-7.93,31.5-9.47,35.91Z"/><path class="cls-11_shopping-cart-21" d="M380.73,395.43c1,1.6,1.52,3.45,1.5,5.34-.46,2.77-3.07,4.64-5.84,4.18-.2-.03-.4-.08-.59-.13-1.12-.46-2.14-1.15-3-2.01-10.36-9.21-18.58-20.57-26.01-32.33-2.01-3.19-3.95-6.43-5.66-9.78-5.77-11.37-8.81-23.94-8.85-36.69-.08-.73.1-1.47.51-2.08.43-.43.98-.72,1.57-.83,5.13-1.44,13.11-1.57,17.65,1.77,5.09,3.72,3.86,15.42,3.64,20.74-.26,2.27-.03,4.57.67,6.75.93,1.86,2.19,3.54,3.72,4.95,10.39,11.16,13.99,26.62,20.69,40.12Z"/><path class="cls-11_shopping-cart-21" d="M316.46,370.03c.7,7.83.28,15.85-.89,23.61-.59,3.9-1.39,7.77-2.41,11.58-.53,1.97-1.1,3.93-1.75,5.86-1.05,3.15-7.06,3.95-8.66.92-.57-1.09-.72-2.34-.86-3.56-1.49-13.23-2.82-26.49-3.98-39.75-.53-6.11-2.03-13.05-1.42-19.15.16-1.61-.6-17.08-1.35-17.08-.3-2.55-.5-5.05-.66-7.61s.2-5.39-.26-7.85c-.14-.75,0-1.52.4-2.17.63-.58,1.49-.85,2.34-.73,5.37,0,15.18-3.1,19.37.32,5.51,4.5-3.31,24.26-4.19,29.98-1.47,9.55,2.67,12.38,3.9,21.81.16,1.34.3,2.58.41,3.81Z"/><path class="cls-10_shopping-cart-21" d="M289.4,317.09c-.13,1.45.24,2.9,1.03,4.12.82.85,1.88,1.45,3.03,1.71,5.89,1.83,12.11,2.22,18.27,2.6,1.88.11,3.96.16,5.41-1.03.9-.87,1.57-1.95,1.94-3.15l6.84-16.73c-.51,5.9-.66,11.83-.46,17.76-.1,1.27.28,2.53,1.05,3.54,1,.77,2.24,1.14,3.49,1.04,9.49.36,18.98-.33,28.32-2.06,3.62-13.34,3.72-27.44,1.92-41.14-.71-5.34-1.76-10.77-4.59-15.36-.69-1.25-1.68-2.32-2.87-3.11-1.79-.86-3.77-1.23-5.75-1.08-14.34-.15-28.9-.48-43.16,1.55-4.45.63-6.77,2.02-8.32,6.37-2.23,6.85-3.79,13.9-4.64,21.05-1.14,7.91-1.64,15.91-1.51,23.9Z"/><path class="cls-5_shopping-cart-21" d="M358.33,324.91l-2.23.38c-8.62,1.44-17.36,2-26.09,1.67-1.25.1-2.5-.27-3.49-1.04-.78-1.01-1.15-2.27-1.05-3.54-.19-5.51-.07-11.02.37-16.52v-.42c0-.14,0-.54.06-.82h0c-2.28,5.56-4.54,11.15-6.82,16.71-.38,1.19-1.05,2.27-1.94,3.15-1.45,1.24-3.53,1.14-5.41,1.03h-.85c-5.87-.37-11.78-.8-17.34-2.55-1.16-.26-2.21-.85-3.03-1.71-.79-1.22-1.15-2.67-1.03-4.12-.13-8.01.37-16.03,1.51-23.96.86-7.12,2.4-14.13,4.62-20.95,1.55-4.35,3.88-5.73,8.32-6.37,14.25-2.03,28.82-1.7,43.16-1.55,1.79-.1,3.58.18,5.25.82.17.07.34.16.5.26,1.19.79,2.18,1.86,2.87,3.11,2.84,4.58,3.89,10.02,4.59,15.36,1.78,13.63,1.66,27.74-1.96,41.08Z"/><path class="cls-3_shopping-cart-21" d="M358.33,324.91l-2.23.38c-.53-.27-1.05-.58-1.55-.9-1.23-.68-2.26-1.66-3-2.85-.54-1.21-.8-2.52-.77-3.84-.41-11.05,1.7-22.29-.54-33.08-.8-3.89-2.41-7.43-3.57-11.15-1.05-3.43,1.3-5.47,4.06-7.43.49-.36,1.01-.68,1.55-.95.17.07.34.16.5.26,1.19.79,2.18,1.86,2.87,3.11,2.84,4.58,3.89,10.02,4.59,15.36,1.82,13.65,1.7,27.75-1.92,41.09Z"/><path class="cls-8_shopping-cart-21" d="M325.91,304.65c-2.28,5.56-4.54,11.15-6.82,16.71-.38,1.19-1.05,2.27-1.94,3.15-1.45,1.24-3.53,1.14-5.41,1.03h-.85c-.32-.17-.62-.38-.9-.61-2.15-1.82-2.92-4.8-1.91-7.43.61-1.23,1.37-2.38,2.28-3.42,5.4-6.92,8.35-15.38,11.22-23.68,1.54,1.79,2.72,3.86,3.47,6.11.8,2.64,1.1,5.4.88,8.15Z"/><path class="cls-11_shopping-cart-21" d="M323.12,144.65c-.06,2.23-.94,4.37-2.48,5.99-2.28,2.06-5.73,1.93-8.59,3.08-.36.12-.69.32-.95.59-.21.25-.36.55-.43.87-.37,1.49-.25,3.06.33,4.48,1.77,4.31,5.35,7.61,9.78,9.03,4.4,1.38,9.07,1.71,13.62.95,1.51-.09,2.98-.51,4.31-1.24,1.41-1.07,2.53-2.48,3.26-4.09.89-1.47,1.48-3.1,1.75-4.79.25-1.74-.44-3.47-1.81-4.57-.63-.38-1.3-.69-2.01-.93-1.1-.42-2.16-.95-3.16-1.59-1.02-.52-1.82-1.41-2.24-2.48-.17-.9-.13-1.84.11-2.72.56-3.01.56-6.1,0-9.11-.13-.89-.41-1.76-.82-2.56-1.38-2.49-4.52-3.38-7.01-1.99-.37.21-.72.46-1.03.75-2.92,2.66-2.29,6.87-2.64,10.32Z"/><path class="cls-11_shopping-cart-21" d="M309.41,128.64c-.17,2.05,0,4.12.51,6.12,1.46,4.74,6.48,7.8,11.44,8,1.63.13,3.26-.18,4.73-.9.84-.48,1.61-1.07,2.3-1.75,3.47-3.17,6.66-6.96,7.71-11.54.36-1.74.51-3.51.45-5.29.04-2.61-.41-5.21-1.34-7.65-1.88-4.39-5.93-7.47-10.66-8.12-4.79-.61-9.29,1.82-12.79,4.83-1.76,1.51-1.5,4.48-1.72,6.75-.31,3.16-.52,6.37-.63,9.56Z"/><path class="cls-10_shopping-cart-21" d="M310.01,102.23c-1.34,2.29-2.24,4.95-4.31,6.6-.85.67-1.86,1.15-2.65,1.88-2.11,2.22-2.25,5.66-.32,8.05,1.99,2.27,5.1,3.23,8.02,2.48,2.88-.8,5.34-2.68,6.87-5.24,1.03-1.61,1.94-3.57,3.72-4.16,1.59-.36,3.26.06,4.5,1.13,1.3.94,2.39,2.18,3.72,3.02.79.41,1.55.87,2.27,1.4,2.13,1.85,1.81,5.18,1.31,7.95.89.27,1.06-1.33,1.85-1.83s1.68.24,1.82,1.06c.05.84-.19,1.67-.68,2.35-2.03,3.55-4.43,7.05-5.11,11.07-.14.54-.11,1.1.07,1.62.41.62,1.04,1.06,1.76,1.24,1.24.54,2.58.81,3.93.8,1.37-.02,2.64-.7,3.43-1.82.38-.72.61-1.51.68-2.32.17-2.69.53-5.35,1.09-7.99,1.5-5.18,5.94-9.68,5.29-15.02-.48-2.41-1.49-4.69-2.96-6.66-.86-1.5-1.91-2.88-3.12-4.11-1.19-1.02-2.51-1.9-3.91-2.6-2.9-1.73-6.07-2.95-9.39-3.6-3.93-.59-7.43.68-11.27.87-3.02.14-4.9.87-6.59,3.83Z"/><path class="cls-12_shopping-cart-21 targetColor" d="M354.92,269.54c-2.22,1.54-4.76,2.56-7.43,2.98-14.24,3.16-29,3.13-43.23-.07-2.97-.68-6.28-1.77-7.57-4.54-.58-1.52-.79-3.16-.63-4.78.34-15.31.68-30.62,1.02-45.93.38-17.4.77-34.86,3.32-52.07.75-3.56,2.16-6.94,4.16-9.98,1.66-2.27,9.18-1.05,15.45-5.11,1.72-1.11-2.02,4.64,3.6,7.02,5.83,2.48,12.38-9.13,15.93-4.47,1.99,2.6,8.33.67,10.34,3.26,1.61,2.08,2.6,6.48,3.23,11.78,1.34,11.26,1,26.54,1.24,32.1,1.05,19.45-.58,44.27,5.84,60.33,1.47,3.49-2.38,7.21-5.28,9.5Z" style="fill: rgb(104, 253, 155);"/><path class="cls-9_shopping-cart-21" d="M354.92,269.54c-2.22,1.54-4.76,2.56-7.43,2.98-3.56.79-7.15,1.38-10.77,1.77l-1.02-.14c.63.09,4.85-23.31,2.23-24.95-.86-.54-1.93-.61-2.95-.63-8.37-.15-16.59,2.41-24.96,2.55-2.36.04-4.81-.14-6.88-1.27s-3.66-3.44-3.29-5.77c.49-3.15,3.93-4.77,6.89-5.94,6.95-2.76,13.12-5.83,18.83-10.52s12.31-7.43,15.19-14.74c2.13-5.39,1.37-11.27,1.35-16.92s1.51-11.13,2.31-16.8c.72-5.13.45-14.14,8.3-11.71l.43.15c1.34,11.26,1,26.54,1.24,32.1,1.05,19.45-.58,44.27,5.84,60.33,1.44,3.49-2.41,7.21-5.31,9.5Z"/><path class="cls-10_shopping-cart-21" d="M388.8,407.83c-.44,1.97-1.56,3.73-3.17,4.95-3.99,3.68-8.55,6.69-13.5,8.92-1,.56-2.14.8-3.28.69-1.78-.51-2.99-2.15-2.96-4,.06-1.8.53-3.56,1.36-5.15,1.02-2.35,1.79-4.79,2.79-7.14.5-1.19,1.06-2.35,1.72-3.46s1.49-1.38,2.8-1.54c1.43-.18,2.98-.59,3.79-1.78.55-.8.75-1.92,1.61-2.36.56-.29,1.26-.18,1.81.13.48.27.79.73,1.25,1.01.41.25.86.4,1.26.69.97.7,1.82,1.58,2.52,2.55,1.34,1.85,2.25,4.19,2,6.5Z"/><path class="cls-10_shopping-cart-21" d="M310.65,409.24c.39-.24.79-.4,1.19-.23.92.4.49,1.79.49,2.54,0,3.82,3.99,9.11-1.89,10.61-1.52.39-3.12.31-4.67.59-1.98.35-3.81,1.28-5.7,1.96-3.2,1.16-6.64,1.64-10.04,1.47-1.74-.09-3.74-.53-4.5-2.09-.57-1.16-.21-2.61.55-3.66s1.87-1.78,2.95-2.49c3.36-2.21,6.73-4.41,10.09-6.62.79-.52,1.45-1.14,2.24-1.66.43-.28.89-.58,1.4-.61.76-.05,1.42.49,2.1.85,1.63.87,3.73.75,5.26-.29.17-.12.35-.25.54-.36Z"/><path class="cls-7_shopping-cart-21" d="M385.63,412.81c-3.99,3.68-8.55,6.69-13.5,8.92-1,.56-2.14.8-3.28.69"/><path class="cls-12_shopping-cart-21 targetColor" d="M342.77,200.38c.21,1.55.05,3.13-.48,4.61-.89,2.04-2.96,3.28-4.95,4.38l-43.92,24.85c-2.06,1.16-4.26,2.48-5.14,4.68-1.93,4.95,4.12,9.4,9.39,9.8,5.51.41,10.93-1.24,16.16-3.06,16.51-5.69,32.45-12.91,47.63-21.55,3.87-1.44,6.16-5.43,5.45-9.5.04-12.12-.88-24.23-2.77-36.21-1.03-6.55-2.48-13.4-6.9-18.36-6.54-7.43-18.48-7.65-19.5,3.23-1.14,12.36,4.22,24.97,5.05,37.13Z" style="fill: rgb(104, 253, 155);"/><path class="cls-6_shopping-cart-21" d="M342.77,200.38c.21,1.55.05,3.13-.48,4.61-.89,2.04-2.96,3.28-4.95,4.38l-43.92,24.85c-2.06,1.16-4.26,2.48-5.14,4.68-1.93,4.95,4.12,9.4,9.39,9.8,5.51.41,10.93-1.24,16.16-3.06,16.51-5.69,32.45-12.91,47.63-21.55,3.87-1.44,6.16-5.43,5.45-9.5.04-12.12-.88-24.23-2.77-36.21-1.03-6.55-2.48-13.4-6.9-18.36-6.54-7.43-18.48-7.65-19.5,3.23-1.14,12.36,4.22,24.97,5.05,37.13Z"/><path class="cls-11_shopping-cart-21" d="M282.63,238.33c-2.31-.04-4.62-.11-6.94-.2-.47-.02-1.03.01-1.27.42-.2.35-.04.82.27,1.08s.71.37,1.1.47c.08.49-.39.9-.85,1.06s-.98.2-1.4.46c-.61.39-.83,1.17-1,1.87-.31,1.3-.62,2.61-.63,3.95,0,1.25.26,2.5.77,3.64.3.68.73,1.36,1.4,1.69s1.62.18,1.96-.48c.45.7,1.58.55,2.19-.01s.9-1.39,1.35-2.09c1.05-1.61,3.11-2.49,5-2.14.82.15,1.59.51,2.39.72,1.81.47,3.81.16,5.41-.81s2.33-3.42,2.21-5.26c-.25-2.35-1.61-3.11-3.64-3.34-2.51-.29-4.98-.97-7.51-1.01-.27,0-.54,0-.81-.01Z"/><path class="cls-11_shopping-cart-21" d="M257.74,227.62c-2.16-2.17-5.48-2.24-8.27-1.51-1.52.39-2.98,1.02-4.32,1.82-1.42.85-2.89,1.38-4.06,2.64-2.16,2.31-3.29,4.6-4.22,7.65-.24.79-.35,1.89.41,2.21.17.07.36.09.5.22.16.15.19.39.24.6.24,1.21,1.37,2.18,2.6,2.23.32.01.68-.02.94.18.22.17.3.45.39.71.63,1.76,2.52,2.97,4.37,2.81.12-.01.24-.03.34-.1.13-.1.17-.27.19-.43.16-1.18-.2-2.39-.03-3.57.18-1.25.95-2.34,1.85-3.22.31-.3.66-.59,1.07-.73.49-.16,1.02-.09,1.53-.01,1.31.19,2.63.38,3.94.58.6.09,1.43.03,1.55-.57.12-.58-.57-.95-.92-1.42-.36-.48-.38-1.15-.19-1.72s.54-1.07.9-1.55c.75-1.03,2.06-1.85,2.33-3.13.29-1.35-.17-2.73-1.13-3.7Z"/></g></svg>